<svg version="1.2" xmlns="http://www.w3.org/2000/svg" viewBox="0 0 1554 596" width="1554" height="596"><style>.a{fill:#0093d7}</style><path fill-rule="evenodd" d="m1 10c0-1.5 1.2-2.7 2.8-2.7h220.9c1.5 0 2.7 1.2 2.7 2.7v48.3c0 1.5-1.2 2.8-2.7 2.8h-69.8c-1.5 0-2.7 1.2-2.7 2.7v95.4c-25.5 5-50.7 10.3-76 15.8v-111.2c0-1.5-1.2-2.7-2.7-2.7h-69.7c-1.6 0-2.8-1.3-2.8-2.8zm317.1 121.2c-26.7 3.8-53.4 7.9-80 12.4 2.4-48.9 13.3-80 33.5-105.3 17-21.2 48.3-37.3 90.3-37.3 42 0 73.3 16.1 90.2 37.3 15.6 19.4 25.5 42.2 30.4 73.8q-39 3.5-77.8 7.9c-1.8-18.6-4.7-32.7-8-42.2-7.3-20.9-19.2-30.9-34.9-30.9-15.7 0-27.6 10-34.9 30.9-3.9 11.3-7.2 29-8.9 53.4zm727.5-21.4v-99.8c0-1.5 1.3-2.8 2.8-2.8h107.1c26.4 0 46.6 2.7 66.4 14.9 26.6 16.4 33 44.8 33 70.8 0 16.7-4 29.4-10.5 39.5-21.9-3.2-43.8-6.1-65.8-8.8 3.6-6.6 5.3-15.6 5.3-27.8 0-19.8-4.5-30.5-11.5-37-6.8-6.3-18.3-7.2-34.1-7.2h-20.9c-1.5 0-2.8 1.3-2.8 2.8v61.8c-22.9-2.3-45.9-4.5-69-6.4zm-268.6-11q-13.2 0-26.4 0.1c5.4-24.9 14.6-44 27.9-60.6 17-21.3 48.3-37.4 90.3-37.4 42 0 73.3 16.1 90.2 37.4 14.5 18 24.1 39 29.3 67.3-26.2-1.7-52.6-3.1-79-4.2-1.6-9.7-3.6-17.6-5.7-23.6-7.2-20.9-19.2-30.9-34.8-30.9-15.7 0-27.7 10-34.9 30.9-1.9 5.6-3.8 12.7-5.3 21.4-17.1-0.2-34.4-0.4-51.6-0.4zm-284.5-87.7c-0.7-1.8 0.6-3.9 2.6-3.9h71.7c1.6 0 3.1 1.1 3.7 2.6l35.7 93.5q-36.6 1.8-73 4.6zm209 88.6q-31 0.7-61.9 2l35.9-92c0.6-1.5 2.1-2.5 3.7-2.5h57.1c1.9 0 3.3 2 2.5 3.9zm682.7 55.9c-26.2-4.9-52.4-9.6-78.8-13.9 2.6-47.8 13.4-78.5 33.4-103.5 16.9-21.2 48.2-37.3 90.2-37.3 42 0 73.3 16.1 90.3 37.3 23 28.9 33.9 65.2 33.9 126.8 0 9.7-0.2 18.8-0.8 27.3q-39.2-9.6-78.7-18.3c0.1-2.9 0.1-5.9 0.1-9 0-42.3-4.4-71.2-10-87.2-7.2-20.9-19.2-30.9-34.9-30.9-15.6 0-27.6 10-34.8 30.9-5.2 14.8-9.3 40.6-9.9 77.8zm-0.1 0.2q0-0.1 0-0.1 0.1 0 0.2 0zm-607.1-57q-0.1 0-0.1 0z"/><path fill-rule="evenodd" class="a" d="m1552.2 192.4c-2.9 45.6-13.7 75.2-33.2 99.5-16.9 21.2-48.2 37.3-90.2 37.3-42 0-73.3-16.1-90.3-37.3-23.1-28.8-33.9-65.2-33.9-126.8 0-8.2 0.2-15.9 0.6-23.3 26.4 4.4 52.6 9 78.9 14 0 3-0.1 6.1-0.1 9.3 0 42.4 4.3 71.3 9.9 87.3 7.3 20.9 19.2 30.9 34.9 30.9 15.7 0 27.6-10 34.9-30.9 5.1-14.9 9.3-40.8 9.9-78.3q39.4 8.7 78.6 18.3zm-638.7-27.4c0-26.3-1.7-47.5-4.3-63.6 26.4 1.1 52.8 2.5 79.1 4.2 3.1 16.9 4.6 36.4 4.6 59.5 0 61.6-10.9 97.9-33.9 126.8-17 21.2-48.3 37.3-90.3 37.3-42 0-73.3-16.1-90.3-37.3-23-28.9-33.9-65.2-33.9-126.8 0-26.2 2-47.8 6-66.1 8.8-0.1 17.6-0.1 26.5-0.1 17.2 0 34.4 0.1 51.6 0.4-2.8 16.3-4.7 38.2-4.7 65.8 0 42.4 4.4 71.2 10 87.3 7.2 20.9 19.2 30.9 34.9 30.9 15.6 0 27.6-10 34.8-30.9 5.7-16 10-44.9 10-87.3zm330.9-32.6c-6.9 10.7-16.8 18.3-28 24.4-1.2 0.6-1.1 2.3 0.1 2.8 27.7 12.3 46.4 32.7 46.4 74.3 0 27-5.8 57.4-33.4 74.5-20.6 12.6-42.5 14.5-70 14.5h-111c-1.5 0-2.8-1.2-2.8-2.7v-210.3c23.1 1.9 46.1 4 69 6.4v20.3c0 1.5 1.2 2.8 2.7 2.8h22.2c19.7 0 32.5-3.8 39.1-15.8q33 4 65.7 8.8zm-97.3 51.3h-29.7c-1.5 0-2.7 1.2-2.7 2.7v89.3c0 1.5 1.2 2.7 2.7 2.7h22.8c18.8 0 30.9-1.2 39.9-9.9 7.6-7.5 11.9-17.4 11.9-35.9 0-34.1-11.2-48.9-44.9-48.9zm-740.7-18.7c0-17.3-0.7-32.2-2-45.1q38.8-4.4 77.9-7.9c2.3 15.4 3.5 32.9 3.5 53 0 61.6-10.8 98-33.9 126.8-16.9 21.3-48.2 37.4-90.2 37.4-42 0-73.3-16.1-90.3-37.4-23-28.8-33.9-65.2-33.9-126.8 0-7.5 0.2-14.7 0.5-21.5 26.6-4.4 53.2-8.6 80-12.4-0.7 10.2-1.1 21.5-1.1 33.9 0 42.4 4.4 71.2 10 87.3 7.2 20.9 19.2 30.9 34.9 30.9 15.6 0 27.6-10 34.9-30.9 5.6-16 9.9-44.9 9.9-87.3zm-330.2 155.2v-145.1q37.8-8.4 75.9-15.9v161c0 1.5-1.2 2.7-2.7 2.7h-70.4c-1.5 0-2.8-1.2-2.8-2.7zm502.5-104l-45.5-108.3q36.5-2.7 73.1-4.6l14.7 38.5c0.5 1.3 2.4 1.3 2.9 0l15.7-40.1q30.9-1.3 62-2l-47.2 112.2c-0.6 1.4-0.9 2.8-0.9 4.3v103.9c0 1.5-1.3 2.8-2.8 2.8h-68.4c-1.5 0-2.7-1.3-2.7-2.8v-99.7c0-1.4-0.4-2.9-0.9-4.2zm613.3 16.4q0 0.1 0 0.1z"/><path fill-rule="evenodd" class="a" d="m110.9 555.3h-34.6v-127.9h33.2c29.9 0 46.8 10.7 46.8 32.4 0 15.8-10.4 26.1-28.2 29.5v0.4c18.4 2.2 30.9 13.2 30.9 30.5 0 26-23.1 35.1-48.1 35.1zm-3.8-112.9h-13.4v39.8h10c17.7 0 34.3-1.9 34.3-20.2 0-15.3-12.7-19.7-30.8-19.7zm-13.4 54.3v44.1h13.7c22.3 0 33.3-6.6 33.3-21.7 0-15.1-11.7-22.4-37.3-22.4z"/><path fill-rule="evenodd" class="a" d="m226.6 542.9c10.7 0 18.8-2.7 27.3-6.9l0.5 15.7c-8.4 3.9-17.8 5.8-28.9 5.8-31.1 0-48.8-18.8-48.8-49.7 0-30.9 17.9-48.1 44.4-48.1 24.6 0 40.2 14.9 40.2 46.3 0 1.9-0.2 4.9-0.3 6.8h-66.8c0.8 19 13.5 30.2 32.5 30.2zm-6.1-70.1c-13.8 0-24.6 9.8-26 26.7h49.6c0-18-9.8-26.7-23.6-26.7z"/><path class="a" d="m291.1 596c-3 0-7-0.4-10.7-1.5l1.2-13.7c2.5 0.7 5.2 1.3 8.1 1.3 10.2 0 14.4-5.4 20.4-22.7l-35.3-97.6h18.8l18.8 56.7c2 5.8 5.1 16.3 6.8 22.8h0.4c1.8-6.5 5-17.3 6.9-22.8l19.2-56.7h17.4l-33.2 92.7c-11.4 31.5-19.8 41.5-38.8 41.5z"/><path fill-rule="evenodd" class="a" d="m419.2 557.5c-26.5 0-47.9-21.9-47.9-48.9 0-27.1 21.4-49 47.9-49 26.6 0 48 21.9 48 49 0 27-21.4 48.9-48 48.9zm29.9-48.8c0-19-13.3-34.4-29.7-34.4-16.4 0-29.7 15.4-29.7 34.4 0 19 13.3 34.4 29.7 34.4 16.4 0 29.7-15.4 29.7-34.4z"/><path class="a" d="m553.7 509.2c0-18.4-1.9-35-21.7-35-9.2 0-17.7 5.3-22.4 13.2-2.8 5.3-4.4 12.3-4.4 23.1v44.8h-17.3v-65.8c0-9.8-0.1-19.7-1-27.7h17.1c0.3 4.1 0.7 10.2 0.7 15.2h0.3c7-10.7 17.7-17.3 31.2-17.3 26.3 0 34.8 17.4 34.8 42.2v53.4h-17.3z"/><path fill-rule="evenodd" class="a" d="m664.1 539.2h-0.4c-7.3 11.7-17.3 18.3-31.7 18.3-25.1 0-41-19.2-41-48.3 0-29.2 16.6-49.6 41.1-49.6 13.8 0 24.8 6.3 30.4 16.3h0.4c-0.4-5.8-0.6-14.1-0.6-23.2v-35.8h17.2v110.2c0 9.8 0.3 20.3 1 28.1h-15.9c-0.3-4.9-0.5-10-0.5-16.1zm-1.2-30.5c0-19-11.9-34.4-26.7-34.4-14.8 0-26.7 15.4-26.7 34.4 0 19 11.9 34.4 26.7 34.4 14.8 0 26.7-15.4 26.7-34.4z"/><path class="a" d="m854 496.8h-61.4v58.5h-18.6v-127.8h18.6v53.7h61.4v-53.7h18.4v127.8h-18.4z"/><path fill-rule="evenodd" class="a" d="m943.2 557.5c-26.6 0-48-21.9-48-48.9 0-27.1 21.4-49 48-49 26.5 0 47.9 21.9 47.9 49 0 27-21.4 48.9-47.9 48.9zm29.8-48.8c0-19-13.3-34.4-29.7-34.4-16.4 0-29.6 15.4-29.6 34.4 0 19 13.2 34.4 29.6 34.4 16.4 0 29.7-15.4 29.7-34.4z"/><path class="a" d="m1011.8 489.5c0-9.8-0.1-19.7-1-27.7h17.3c0.5 4.8 0.7 11.1 0.7 15.8h0.3c5.4-10.7 14.5-17.9 26.3-17.9 3.6 0 6.6 0.3 9 1.3v16.3c-2.2-0.9-5.4-1.5-9.4-1.5-16.1 0-25.9 13.4-25.9 37.3v42.2h-17.3z"/><path class="a" d="m1084.3 425.7h19.3v19.3h-19.3zm18.4 36.2v93.4h-17.6v-93.4z"/><path class="a" d="m1147.1 541.4h57v13.9h-76.3v-15.1c41.4-49.2 51.6-60.9 55.5-64.8h-52.9v-13.6h71.8v15.3c-36.4 43.4-50.2 59-55.1 64.3z"/><path fill-rule="evenodd" class="a" d="m1264.5 557.5c-26.6 0-48-21.9-48-48.9 0-27.1 21.4-49 48-49 26.5 0 47.9 21.9 47.9 49 0 27-21.4 48.9-47.9 48.9zm29.8-48.8c0-19-13.3-34.4-29.7-34.4-16.4 0-29.6 15.4-29.6 34.4 0 19 13.2 34.4 29.6 34.4 16.4 0 29.7-15.4 29.7-34.4z"/><path class="a" d="m1395.5 509.2c0-18.4-1.8-35-21.7-35-9.1 0-17.6 5.3-22.3 13.2-2.9 5.3-4.4 12.3-4.4 23.1v44.8h-17.3v-65.8c0-9.8-0.2-19.7-1.1-27.7h17.2c0.3 4.1 0.6 10.2 0.6 15.2h0.3c7-10.7 17.7-17.3 31.2-17.3 26.3 0 34.8 17.4 34.8 42.2v53.4h-17.3z"/><path class="a" d="m1458.3 557.5c-9.5 0-17.3-1.5-25.3-4.6l1.3-15.5c7.1 4 14.9 6 22.8 6 10 0 17.4-4.7 17.4-12.8 0-7.3-4.9-10.9-19.3-17.9-15.6-7.4-21.6-14-21.6-25.9 0-16.8 13.6-27.1 32.8-27.1 7.9 0 15.9 1.5 21.5 3.9l-1.5 14.4c-6.6-3.2-13-4.6-19.8-4.6-8.7 0-15.5 4.3-15.5 11.9 0 7.7 5.3 10.9 17.3 16 17.3 7.6 23.6 15.5 23.6 28 0 18.6-14.1 28.3-33.7 28.3z"/></svg>