<svg version="1.2" xmlns="http://www.w3.org/2000/svg" viewBox="0 0 1553 234" width="1553" height="234">
	<style>
		.s0 { fill: #007bd0 } 
	</style>
	<path id="シェイプ_804" fill-rule="evenodd" class="s0" d="m900.35 55.92l-98.55 168.05h-87.69l-97.87-168.73c-11.25-18.35-22.12-36.5-49.37-43.4v-2.91h144.14v2.91c-18.33 9.32-22.41 23.4-12.9 42.04l87.01 146.89 84.97-145.24c12.9-21.84 8.15-36.79-9.22-43.69v-2.81l86.43-0.1v2.91c-23.67 8.55-34.72 24.08-46.95 44.08zm651.75 103.98c-24.64 44.56-70.91 73-154.04 73-92.73 0-167.71-44.07-167.71-116.89 0-83.78 90.4-116.01 167.71-116.01 64.7 0 101.37 19.32 113.98 27.09 12.61 7.76 18.33 11.94 32.59-18.06h2.62v80.77h-20.18c-10.38-30.09-49.27-60.77-101.75-60.77-63.44 0-107.48 37.67-107.48 87.66 0 60.58 55.29 84.37 107.87 84.37 8.96 0.45 17.94-0.12 26.77-1.72 8.83-1.59 17.45-4.19 25.69-7.75 8.24-3.56 16.05-8.04 23.26-13.38 7.22-5.33 13.81-11.48 19.63-18.31zm-305.46 61.16v2.91h-151.61v-2.91c17.95-8.45 21.25-23.88 11.55-41.84l-11.06-19.42h-149.87l-11.25 19.03c-12.8 23.01-4.27 36.21 12.13 42.33v2.81h-86.33v-2.81c19.69-6.41 31.52-21.65 45-43.89l100.59-168.34h86.82l103.11 170.29c16.97 24.17 25.41 32.52 50.92 41.84zm-165.87-86.7l-59.26-103.29-60.82 103.29zm-976.47-80.87v93.69c1.28 39.71 27.16 54.27 85.11 53.78 51.79 0 85.74-14.46 85.74-63.49v-83.78c-0.29-22.33-7.85-35.15-22.11-41.85v-2.91c2.42 0.1 85.36 0 85.36 0v2.91c-17.37 5.83-24.54 16.02-24.83 41.85v94.07c0 58.74-50.64 85.34-145.21 85.34-90.7 0-142.93-27.48-143.56-86.02v-93.49c-0.38-24.56-6.38-35.44-24.81-41.75v-2.81h129.2v2.81c-15.79 5.34-24.2 15.15-24.89 41.65zm357.9 0.2v117.95c0.68 20.68 11.25 27.28 31.52 27.58h63.73c38.32-1.66 70.72-36.9 81.19-58.64h2.33l-14.16 83.39h-271.6v-2.81c19.4-8.26 26.77-23.5 27.45-46.12v-121.16c-0.19-21.94-5.04-36.11-24.83-42.04v-2.81h129.2v2.81c-19.88 5.93-24.15 21.46-24.83 41.85z"/>
</svg>