<svg xmlns="http://www.w3.org/2000/svg" width="138" height="85" viewBox="0 0 138 85"><g><g><path fill="#5058ae" d="M41.582 62.928c.275.405.749.492 1.147.68 9.475 4.48 19.317 7.964 29.396 10.808 1.075.303 2.145.627 3.314.883-.321.307-.625.209-.912.165a164.106 164.106 0 0 1-25.633-6.057c-2.012-.651-3.998-1.376-5.998-2.061-.242-.083-.474-.24-.752-.144-.698-.485-1.44-.856-2.313-.88-.215-.326-.585-.39-.91-.52-7.357-2.988-14.398-6.572-20.92-11.126C11.157 49.896 5.168 44.26.54 37.256c-.298-.451-.311-.676.15-1.005 2.649-1.881 5.612-3.098 8.663-4.12 5.275-1.765 10.716-2.762 16.224-3.445 3.539-.44 7.092-.71 10.654-.861.31-.013.559-.054.646-.397.074.53.373.467.722.272l.284-.006.279-.003c1.135-.055 2.278.123 3.406-.128-.068.392-.438.374-.667.376-.837.008-1.648.195-2.454.352-.575.112-1.254.002-1.7.544a.114.114 0 0 1-.033-.12c-.188.01-.381-.005-.563.034-5.498 1.147-10.906 2.6-16.09 4.797-2.965 1.256-5.812 2.729-8.297 4.806-1.114.932-1.055.649-.286 1.834 1.378 2.12 3.054 4.003 4.837 5.786 4.426 4.426 9.445 8.09 14.764 11.364a108.704 108.704 0 0 0 7.076 3.99c.155.08.389.505.604.026.722.918 1.79 1.213 2.823 1.576z"/></g><g><path fill="#a7aada" d="M66.117 19.862c.366.064.639-.134.91-.326 3.014-2.13 6.2-3.966 9.51-5.588 4.605-2.257 9.422-3.902 14.484-4.769 2.056-.352 4.137-.502 6.222-.608.654-.034.853.202.904.84.317 3.89-.443 7.64-1.451 11.351-1.48 5.45-3.646 10.637-6.238 15.641-.64 1.235-1.104 2.556-1.865 3.728-.121.185-.144.441-.447.586.339-.969.637-1.886.98-2.786.63-1.656 1.09-3.364 1.569-5.065.82-2.92 1.456-5.888 1.815-8.899.339-2.847.42-5.71-.094-8.559-.09-.49-.26-.723-.828-.712-3.037.06-5.981.668-8.873 1.522-4.923 1.455-9.538 3.624-13.981 6.174-.23.132-.463.247-.553.521-.733.032-1.225.52-1.76.927-1.9.985-3.62 2.253-5.372 3.465-3.395 2.351-6.615 4.932-9.741 7.625a167.429 167.429 0 0 0-5.387 4.867c-1.011.95-1.86 2.08-3.13 2.903.094-.515.419-.784.667-1.086 2.638-3.207 5.394-6.307 8.332-9.244 2.652-2.65 5.366-5.232 8.285-7.594 1.216-.984 2.422-1.98 3.675-2.917.129-.097.217-.248.324-.374.75-.25 1.26-.865 1.92-1.253.154-.089.13-.23.123-.37z"/></g><g><path fill="#313787" d="M66.117 19.862c.007.14.03.281-.122.37-.66.388-1.171 1.003-1.921 1.253-3.284-3.22-6.756-6.204-10.728-8.562-1.331-.79-2.724-1.45-4.16-2.03-.51-.207-.761-.087-1.034.35-1.831 2.923-3.094 6.095-4.107 9.371-1.841 5.956-2.762 12.074-3.184 18.28-.303 4.462-.28 8.925-.143 13.39l.02 4.235c.002.184-.042.465.237.124.163 1.918.443 3.827.47 5.756.004.196.063.36.137.53-1.032-.364-2.101-.66-2.823-1.577-.246-1.305-.533-2.605-.732-3.917-.678-4.487-1.258-8.985-1.508-13.52-.217-3.94-.305-7.879-.028-11.82.357-.073.235-.363.238-.572.017-.895.014-1.79.018-2.687.446-.543 1.126-.433 1.7-.545.806-.157 1.617-.344 2.454-.352.229-.003.599.016.667-.377.32-.01.637-.012.594-.485-.146-1.579.7-2.962.935-4.474.06-.386-.025-.888.193-1.169.404-.522.403-1.134.559-1.7.065-.235.438-.436.164-.76-.19-.223-.22-.41.182-.339.147.026.219-.037.24-.178.182-1.137.724-2.143 1.157-3.189.453-1.093 1.29-2.047 1.218-3.334-.002-.039.1-.1.164-.124.619-.243.96-.735 1.236-1.309.09-.19.209-.374.554-.209 1.524.73 3.132 1.283 4.613 2.102.53.293.926.847 1.469 1.093 2.16.98 3.787 2.65 5.53 4.165.568.493 1.043 1.093 1.79 1.333.158.05.207.152.276.286.332.648.957 1.035 1.424 1.565.108.124.233.153.38.08.376-.188.756-.365 1.124-.567.258-.14.302-.478.163-.616-.307-.305-.41-.798-.706-1.002-.737-.508-.927-1.365-1.47-1.993-.68-.788-1.145-1.76-2.076-2.328-.562-.343-.918-.9-1.087-1.47-.33-1.117-1.572-1.457-1.95-2.492-.707-.074-.841-.783-1.197-1.19-.765-.878-1.492-1.91-2.457-2.42-1.206-.635-1.75-1.849-2.842-2.53-.841-.523-1.557-1.262-2.374-1.805-.673-.447-1.407-.823-2.056-1.326-.621-.48-1.77-.386-1.93.233-.242.937-.957 1.59-1.281 2.43-.218.563-.902 1.045-.542 1.806.06.126-.084.27-.2.353-.54.398-.882.913-1.083 1.56-.057.184.033.353-.078.528-.628.99-1.135 2.025-1.096 3.241.005.142-.067.213-.171.28-.617.403-.661 1.078-.765 1.703-.123.746-.48 1.416-.62 2.174-.11.59-.394 1.222-.52 1.851-.204 1.04-.665 2.007-.738 3.094-.026.391-.011.852-.17 1.24-.423 1.034-.203 2.165-.517 3.218-.103.345-.095.713-.206 1.081-.165.545-.32 1.21.198 1.731-.35.195-.648.26-.722-.272.379-4.153 1.176-8.228 2.306-12.238 1.437-5.105 3.485-9.946 6.243-14.486.316-.519.562-.53 1.05-.288 3.1 1.543 5.757 3.691 8.263 6.04 4.165 3.901 7.74 8.308 11.033 12.954.109.155.23.302.345.452z"/></g><g><path fill="#2e3589" d="M62.31 42.382c2.064.232 3.731 1.13 4.666 3.036 1.11 2.264.011 4.698-2.459 5.636-1.194.453-2.444.562-3.706.576-1.47.016-2.94.018-4.412.025-.214.123-.247.323-.247.546.003 1.627.003 3.254.003 4.88 0 .195 0 .39.261.421.2 1.144.978 1.704 2.02 1.996.162.6.794.051 1.103.5H49.325c.223-.376.758.006.83-.47 1.777-.522 2.223-1.009 2.246-2.864.044-3.604.044-7.209-.002-10.813-.025-1.947-.492-2.415-2.514-2.907.031-.353-.455-.176-.536-.562zm-5.569 8.561c.831.002 1.662 0 2.493.001.204 0 .376-.055.47-.255 1.545-.292 2.673-1.105 3.254-2.603.461-.326.488-1.59.042-2.009-.532-1.703-1.697-2.713-3.449-2.94a13.797 13.797 0 0 0-3.18-.039c-.202.14-.22.347-.22.568.003 2.185.003 4.37.002 6.553 0 .248.014.48.311.557.05.126.155.167.277.167zm-4.039-5.39l-.073-.003v11.64c.024 0 .05 0 .073-.002z"/></g><g><path fill="#313787" d="M121.242 42.612c.003 4.68 0 9.36.004 14.04 0 .357.003.716.04 1.069.13 1.212.58 1.655 1.793 1.828.27.038.664-.077.624.446-.036.465-.384.339-.635.362-1.278.118-2.56.207-3.836.335-.391.039-.668.006-.686-.458-.023-.582-.325-.471-.713-.331-2.094.756-4.221.922-6.36.21-2.35-.783-3.805-2.612-3.954-4.895-.158-2.44 1.072-4.64 3.298-5.68 2.284-1.067 4.623-1.243 6.932-.047.579.3.659.135.647-.423-.028-1.26.01-2.52-.015-3.778-.031-1.561-.51-2.086-2.031-2.294-.262-.036-.52.006-.503-.406.014-.36.23-.35.474-.368.473-.034.945-.075 1.417-.114.833-.006 1.667.023 2.496-.03.604-.038.759.176.756.762-.022 4.68-.013 9.363-.008 14.044 0 .25-.068.51.135.897v-.913c0-4.73-.001-9.457.003-14.186 0-.282-.06-.571.066-.844.02.258.056.516.056.774zm-2.998 9.554c-.228-1.556-1.246-2.498-2.82-2.635-1.22-.107-2.242.312-3.086 1.179-2.065 2.123-2.084 5.777-.024 7.903 1.036 1.069 2.31 1.383 3.73.958 1.399-.42 2.049-1.471 2.214-2.856.088-.73.113-1.467.166-2.201a18.746 18.746 0 0 0-.18-2.348z"/></g><g><path fill="#313787" d="M71.593 50.934c-.414.835-1.176 1.133-2.023.836-.45-.159-.78-.454-.884-.944-.11-.511.136-.877.52-1.162.63-.467 1.376-.629 2.127-.764 1.934-.35 3.837-.24 5.69.431 1.42.515 1.862 1.164 1.87 2.666.012 1.901.008 3.802.04 5.702.009.562.004 1.199.648 1.471.627.264 1.218.14 1.684-.383.206-.229.396-.184.628-.049.42.247-.073.499.022.743 1.353.057 1.934-.383 2.019-1.688.135-2.063.122-4.132.01-6.197-.06-1.079-.513-1.515-1.595-1.648-.312-.039-.551-.052-.518-.474.039-.496.376-.219.582-.251 1.023-.158 2.047-.32 3.072-.467.724-.104 1.019.082 1.029.791.003.181.062.361.116.654 1.046-.874 2.174-1.373 3.459-1.463.714-.05 1.43-.081 2.102.235.715.336 1.022.96.785 1.552-.206.517-.908.795-1.588.639-.413-.095-.711-.361-1.018-.629-1.206-1.053-2.472-.764-3.066.713a5.04 5.04 0 0 0-.32 1.237c-.231 1.822-.116 3.653-.076 5.48.017.802.463 1.266 1.234 1.435.232.051.462.109.696.149.28.048.315.233.307.47-.01.26-.163.306-.378.306-2.26-.002-4.52-.001-6.778-.001-.588-.677-1.092.009-1.633.1-1.408.236-2.773.243-3.824-.93-.345-.384-.56-.141-.836.04-1.88 1.226-3.896 1.38-5.92.519-1.984-.843-2.131-3.236-.35-4.462a3.552 3.552 0 0 1 1.157-.541c.922-.23 1.846-.448 2.77-.671.208-.051.417-.096.623-.152 1.474-.398 1.969-.879 2.002-1.941.05-1.623-.393-2.301-1.835-2.81l.147-.203c-.437.038-.943-.299-1.29.235-.703.245-1.088.786-1.407 1.426zm9.733 8.303c-.157-.024-.254.093-.38.154-.747.366-2.08.012-2.19-.654-.17-1.037-.16-2.103-.256-3.153-.12-1.305.258-2.652-.19-3.962-.014-.041.004-.093.007-.14.065-.965-.09-1.294-.944-1.649-.724-.3-1.45-.684-2.36-.56 1.237 1.307 2.022 3.306.635 4.69.333.193.777.285.778.79 0 1.214.14 2.442-.546 3.561-.171.278-.691.894.327.639.052-.013.137.043.184.09.989.972 2.209 1.099 3.518 1.048.668-.027 1.129-.324 1.674-.76-.171-.064-.213-.088-.257-.094zm-8.24-3.587a3.156 3.156 0 0 0-1.198.987c-.5.696-.56 1.564-.148 2.206.406.632 1.24.931 2.082.73 1.033-.246 1.719-.872 2.012-1.902.312-1.093.186-2.207.206-3.413-1.072.503-2.02.935-2.954 1.392zm-1.28 4.248c.197-.376-.078-.645-.314-.929-.413-.497-.217-1.156-.297-1.725-.03-.206.36-.769.7-1.069.437-.384.746-.927 1.393-1.038.157-.027.334-.156.23-.359-.082-.163-.222-.09-.358-.011-.828.48-1.798.447-2.69.711a2.775 2.775 0 0 0-1.673 1.331c-.765 1.419.516 3.258 2.244 3.263.199-.095.585.174.766-.174zm-2.305-10.045c-.294.122-.625.593-.41.985.416.756 1.243.921 1.819.364.574-.556.844-1.328 1.58-1.891-1.202-.267-2.103.176-2.99.542z"/></g><g><path fill="#313787" d="M104.279 54.753c0 1.045-.017 2.092.006 3.137.012.528.083 1.079.678 1.3.58.215 1.14.126 1.577-.333.245-.258.47-.311.733-.088.309.262.007.467-.104.669-.214.39-.571.628-.968.808-1.364.622-3.256.333-4.302-.73-.342-.345-.54-.203-.83-.007-1.792 1.21-3.73 1.33-5.724.653-1.01-.343-1.71-1.036-1.79-2.175-.086-1.212.522-2.034 1.54-2.595.717-.395 1.514-.552 2.302-.732.695-.16 1.399-.286 2.084-.481 1.596-.454 1.99-1.068 1.796-2.71-.13-1.082-.738-1.756-1.77-1.954-1.115-.214-1.881.15-2.422 1.153-.575 1.066-1.08 1.354-2.015 1.14-.557-.128-.951-.452-1.056-1.027-.097-.537.2-.904.625-1.184.609-.403 1.303-.566 2.007-.694 1.958-.358 3.886-.245 5.759.446 1.377.507 1.818 1.16 1.85 2.623.005.142.012.285.012.428v2.353zm-2.892.112c.037-.47-.023-.673-.557-.374-.681.382-1.414.673-2.121 1.009-.631.3-1.211.675-1.58 1.288-.396.657-.465 1.36-.06 2.028.397.653 1.047.889 1.784.803 1.078-.127 1.866-.681 2.245-1.722.272-.747.3-1.533.286-2.32 0-.238-.015-.476.003-.712z"/></g><g><path fill="#313787" d="M126.182 58.547c-2.157-2.174-2.048-5.864.23-7.914 2.284-2.055 6.047-2.557 8.665-1.142 1.22.659 2.008 1.635 2.202 3.05.077.567-.036.793-.683.784-2.614-.038-5.229.014-7.843-.034-.729-.013-.86.24-.84.893.113 3.629 3.514 5.996 6.965 4.829.888-.3 1.536-.858 1.878-1.723.146-.371.333-.374.653-.273.444.14.209.408.13.62-.718 1.929-2.316 2.584-4.174 2.835-.493.067-.995.063-1.493.09-2.125-.037-4.118-.431-5.69-2.015zm2.05-6.657c-.117.382-.056.493.355.489a280.41 280.41 0 0 1 5.348 0c.403.004.476-.13.406-.501-.27-1.427-1.458-2.421-2.929-2.42-1.419.003-2.753 1.04-3.18 2.432zm.062.656l-.007.07h5.954v-.07zm3.969 6.846l.001.06h1.95l-.002-.06z"/></g><g><path fill="#313787" d="M39.831 66.322c.874.024 1.615.395 2.313.88.096.735.192 1.471.29 2.206.077.768.064 1.527.232 2.31.226 1.051.513 2.138.564 3.191.066 1.347.58 2.58.684 3.904.04.51.284 1.02.258 1.566-.01.192.148.122.257.1l.005.024c-.042.3.107.63-.105.924-.239-.143-.093-.528-.435-.525-.037-.029-.046-.066-.028-.109-.048-.256.2-.607-.239-.736l-.04-.147c.08-.986-.445-1.819-.74-2.699-.095-.28.117-.769-.392-.88a110.603 110.603 0 0 1-2.624-10.009z"/></g><g><path fill="#313787" d="M66.421 23.84c.534-.408 1.027-.895 1.76-.927 1.23 1.935 2.54 3.823 3.548 5.892.067.194.101.415.368.444.048.024.068.062.06.116-.046.217.04.64-.389.228-.157-.149-.276-.387-.559-.34l-.204-.244c-.16-1.02-1.039-1.442-1.707-2.039l-2.877-3.13z"/></g><g><path fill="#383b7a" d="M50.154 59.528c-.071.476-.605.094-.828.47H59.54c-.31-.449-.942.1-1.103-.5.345.025.69.057 1.035.073.27.012.288.184.285.391-.002.214-.045.367-.311.367-3.352-.003-6.703-.002-10.055 0-.236 0-.343-.096-.351-.336-.007-.247.042-.42.334-.427.26-.006.52-.025.78-.038z"/></g><g><path fill="#383b7a" d="M62.31 42.383H49.349c.08.384.567.208.536.56-.19.002-.378.006-.568.004-.275-.006-.268-.2-.275-.4-.01-.233.075-.361.324-.347.047.002.095-.002.142-.002 4.012.017 8.023.03 12.035.055.256 0 .51.085.767.13z"/></g><g><path fill="#383b7a" d="M121.186 41.838c-.126.273-.066.562-.066.844-.005 4.729-.003 9.458-.003 14.187v.912c-.204-.385-.135-.647-.135-.896-.005-4.682-.014-9.363.008-14.045.003-.586-.153-.8-.756-.761-.83.052-1.664.023-2.496.029 1.146-.14 2.28-.418 3.448-.27z"/></g><g><path fill="#383b7a" d="M44.43 80.48c-.11.021-.268.091-.258-.1.026-.548-.218-1.058-.258-1.567-.104-1.325-.618-2.557-.684-3.904-.05-1.053-.338-2.14-.564-3.19-.168-.784-.155-1.543-.233-2.31.438 2.477.871 4.956 1.315 7.433.217 1.214.453 2.425.681 3.637z"/></g><g><path fill="#383b7a" d="M43.894 80.902c.342-.003.195.382.435.525.212-.295.063-.625.104-.924l.942 4.265c-.656-1.248-1.124-2.538-1.48-3.866z"/></g><g><path fill="#383b7a" d="M71.21 29.252c.281-.046.401.192.558.341.43.411.343-.01.388-.228l1.917 3.273c-1.105-.932-1.86-2.264-2.864-3.386z"/></g><g><path fill="#383b7a" d="M56.416 57.502c-.26-.033-.26-.226-.26-.42 0-1.628 0-3.254-.004-4.88 0-.225.033-.425.247-.547l.017 5.847z"/></g><g><path fill="#383b7a" d="M40.975 56.643c-.28.342-.235.06-.236-.124-.008-1.411-.014-2.823-.02-4.235.084 1.453.17 2.906.256 4.359z"/></g><g><path fill="#383b7a" d="M42.455 76.332c.509.11.297.6.391.879.296.88.82 1.714.74 2.699-.174-.208-.206-.466-.247-.72.013-.018.042-.046.038-.052-.021-.031-.05-.058-.077-.087-.369-.88-.616-1.796-.845-2.72z"/></g><g><path fill="#383b7a" d="M69.298 26.97c.668.597 1.546 1.02 1.707 2.04l-1.707-2.04z"/></g><g><path fill="#383b7a" d="M73 49.508c.347-.534.853-.197 1.29-.234-.05.067-.098.135-.147.202-.381.01-.761.02-1.142.032z"/></g><g><path fill="#383b7a" d="M43.627 80.058c.438.128.191.48.24.734-.177-.212-.212-.472-.24-.734z"/></g><g><path fill="#383b7a" d="M72.097 29.25c-.267-.029-.3-.25-.368-.445.176.104.336.221.368.444z"/></g><g><path fill="#a7aada" d="M42.59 42.951l-.064.061c.004-.014.003-.033.012-.04.016-.01.036-.013.054-.019z"/></g><g><path fill="#a7aada" d="M42.592 42.953l.059-.069c-.002.014 0 .034-.008.041-.014.013-.035.018-.053.026z"/></g><g><path fill="#313787" d="M43.3 79.05c.027.029.057.056.077.088.004.006-.025.034-.039.05l-.037-.137z"/></g><g><path fill="#2e3589" d="M37.4 25.969c.112-.368.104-.735.207-1.08.314-1.053.094-2.185.518-3.22.158-.386.143-.847.169-1.238.073-1.088.534-2.056.74-3.095.124-.628.409-1.262.518-1.851.14-.757.497-1.428.62-2.174.104-.625.148-1.3.766-1.702.103-.068.175-.138.17-.281-.04-1.215.469-2.251 1.096-3.241.11-.174.02-.344.078-.527.2-.648.543-1.163 1.084-1.56.115-.085.259-.227.199-.354-.36-.76.325-1.243.542-1.807.324-.84 1.04-1.491 1.28-2.428.16-.62 1.31-.715 1.93-.234.65.503 1.384.88 2.057 1.327.817.542 1.533 1.28 2.374 1.804 1.093.68 1.636 1.896 2.842 2.53.966.509 1.693 1.542 2.457 2.419.356.408.49 1.118 1.197 1.19.379 1.036 1.62 1.377 1.95 2.492.169.572.525 1.128 1.088 1.47.93.569 1.396 1.542 2.076 2.329.543.628.733 1.486 1.47 1.994.295.203.398.696.705 1 .139.139.095.476-.163.618-.367.2-.748.379-1.123.566-.147.073-.272.044-.381-.08-.466-.53-1.092-.917-1.424-1.565-.07-.133-.118-.235-.275-.286-.748-.24-1.223-.84-1.79-1.332-1.744-1.515-3.37-3.186-5.531-4.166-.543-.246-.94-.8-1.468-1.092-1.482-.82-3.09-1.374-4.614-2.103-.344-.164-.463.019-.554.209-.275.575-.616 1.066-1.236 1.309-.064.025-.166.085-.163.124.072 1.288-.766 2.24-1.22 3.334-.432 1.046-.974 2.052-1.154 3.189-.023.142-.094.205-.242.179-.401-.072-.371.115-.182.339.274.324-.1.525-.163.758-.157.568-.156 1.179-.56 1.7-.217.282-.133.785-.193 1.17-.235 1.512-1.081 2.895-.935 4.475.044.472-.273.474-.594.485-1.127.25-2.271.073-3.406.128-.01-.128.038-.334-.11-.346-.245-.021-.138.216-.17.349l-.282.006c-.517-.521-.364-1.186-.2-1.731zm2.516-9.95c-.112.009-.151.092-.152.19 0 .115.08.172.177.138.073-.026.126-.11.168-.148-.01-.168-.098-.187-.193-.18z"/></g><g><path fill="#383b7a" d="M36.49 32.095l.224-3.38a.114.114 0 0 0 .033.12c-.004.896-.001 1.792-.018 2.688-.003.21.119.5-.238.572z"/></g><g><path fill="#313787" d="M37.883 27.694c.03-.134-.076-.371.17-.35.147.013.099.219.109.347l-.28.003z"/></g><g><path fill="#383b7a" d="M56.372 43.098c0 2.28 0 4.56.004 6.84 0 .282-.047.572.094.84-.302-.076-.316-.31-.316-.559 0-2.184 0-4.369-.002-6.553-.001-.222.017-.428.22-.568z"/></g><g><path fill="#313787" d="M52.702 45.553v11.635l-.073.001V45.55l.073.003z"/></g><g><path fill="#383b7a" d="M56.462 50.77l3.241-.08c-.094.2-.265.253-.469.253h-2.493c-.124 0-.232-.042-.279-.173z"/></g><g><path fill="#383b7a" d="M62.958 48.086c.117-.668.096-1.338.042-2.009.447.418.42 1.683-.042 2.01z"/></g><g><path fill="#2e3589" d="M81.583 59.33c-.545.437-1.006.735-1.674.76-1.309.052-2.529-.075-3.518-1.047-.047-.047-.132-.103-.184-.09-1.018.255-.498-.361-.328-.64.687-1.117.548-2.346.546-3.56 0-.504-.444-.597-.777-.79 1.387-1.384.602-3.383-.634-4.69.91-.124 1.635.26 2.359.56.854.355 1.008.685.944 1.649-.004.047-.021.099-.007.14.448 1.31.07 2.658.19 3.962.096 1.05.086 2.116.257 3.153.11.666 1.442 1.02 2.19.654.125-.061.222-.177.378-.154.045.007.087.03.258.094z"/></g><g><path fill="#2e3589" d="M71.041 60.072c-1.728-.006-3.009-1.844-2.244-3.263a2.772 2.772 0 0 1 1.673-1.33c.892-.265 1.862-.232 2.69-.712.136-.079.276-.152.359.011.103.203-.074.332-.231.358-.647.112-.956.655-1.392 1.04-.342.3-.73.862-.701 1.068.08.57-.117 1.228.297 1.725.236.284.511.553.315.93-.181.347-.568.078-.766.173z"/></g><g><path fill="#2e3589" d="M72.49 49.311c-.736.563-1.006 1.335-1.58 1.891-.576.557-1.403.392-1.818-.364-.216-.392.115-.863.409-.985.886-.366 1.787-.809 2.99-.542z"/></g><g><path fill="#383b7a" d="M128.294 52.546h5.947v.07h-5.955l.008-.07z"/></g><g><path fill="#383b7a" d="M132.263 59.392h1.949l.002.06h-1.95l-.001-.06z"/></g><g><path fill="#313787" d="M40.109 16.199c-.042.039-.095.122-.168.148-.096.034-.177-.023-.177-.138 0-.098.04-.181.152-.19.095-.007.184.012.193.18z"/></g></g></svg>